<?xml version="1.0" encoding="UTF-8" standalone="no"?>
<svg
   version="1.1"
   viewBox="0 0 1023.969 244.76517"
   id="svg19"
   width="1023.9688"
   height="244.76512"
   xmlns="http://www.w3.org/2000/svg"
   xmlns:svg="http://www.w3.org/2000/svg">
  <defs
     id="defs19" />
  <g
     fill="#000000"
     id="g19"
     style="display:inline"
     transform="translate(-0.41810701,-1.2751595)">
    <path
       id="path13"
       d="m 113.63686,1.7534498 c -0.40645,-4.124e-4 -0.49751,-0.036824 -0.63672,0.353515 C 102.92681,30.733635 93.02105,57.231206 83.267716,84.124546 c -3.08,8.47 -5.388906,16.110854 -8.128906,23.380854 -2.453333,6.51333 -4.506823,12.34356 -6.160156,17.49023 -3.04,9.46667 -6.706667,19.98836 -11,31.56836 -5.95,16.07 -13.050781,37.25992 -18.300781,51.16992 -2.68,7.10667 -4.754037,11.95745 -6.220704,14.55078 -4.74,8.41334 -11.555885,14.74357 -20.449218,18.99024 -0.324963,0.15266 -0.671285,0.26043 -1.029297,0.32031 l -11.56054699,1.94922 v 1.75977 l 63.88085899,0.61132 c 0.556095,0.005 1.009793,-0.44388 1.009766,-1 v -0.35156 c -0.0015,-0.57059 -0.428007,-1.04836 -0.990234,-1.10937 -8.21,-0.84 -15.351094,-8.20032 -16.371094,-16.32032 -0.81,-6.46 1.129844,-13.79031 3.089844,-20.32031 3,-9.95 7.390234,-20.90844 9.240234,-29.14844 0.07528,-0.34423 0.383278,-0.58966 0.740234,-0.58984 h 73.189454 c 0.54571,-10e-4 1.01575,0.38447 1.1211,0.91992 0.52,2.63333 0.95721,4.54495 1.31054,5.73828 6.41334,21.66 10.79201,37.45729 13.13868,47.39063 0.86,3.62666 1.1069,6.30458 0.74023,8.03125 -0.83,3.89 -7.4493,4.03 -10.5293,4.25 -0.48442,0.032 -0.86061,0.43894 -0.85937,0.92968 v 0.29883 c -3.9e-4,0.53551 0.43324,0.97002 0.96875,0.97071 h 68.08008 c 0.62216,0.004 1.05602,-0.61581 0.83984,-1.19922 -0.16613,-0.45819 -0.4227,-0.80019 -0.7528,-1.06423 -0.90186,-0.72136 -2.35253,-0.86075 -4.00697,-1.19749 -3.4,-0.7 -5.04961,-5.08969 -6.09961,-7.67969 -24.894,-74.15556 -46.70088,-149.360279 -70.62109,-223.849604 -0.87333,-2.5866599 -1.75282,-4.6622627 -2.63282,-8.4889327 -0.10771,-0.464365 -0.15108,-0.3483401 -0.68359,-0.3684872 z M 823.63881,1.3042361 c -42.79,-0.18 -96.84039,0.54062 -134.15039,0.39062 -0.74684,0.00274 -1.25469,0.7558306 -0.9707,1.43945 l 0.041,0.1211 c 0.34496,0.8442745 1.12102,1.4365897 2.0293,1.54883 3.6,0.43 6.99977,-0.03 8.50977,4 1.99,5.3099999 1.80109,11.7506199 1.87109,17.3906199 0.17333,15.28667 0.25977,36.50992 0.25977,63.66992 0.007,41.513334 0.0129,62.736584 0.0195,63.669914 0.17333,40.93334 0.19078,65.98683 0.0508,75.16016 -0.0467,3.34 -0.65365,6.51286 -1.82031,9.51953 -1.67,4.32 -5.22977,4.65094 -9.50977,5.21094 -0.49152,0.0631 -0.86465,0.47347 -0.88086,0.96875 l -0.0195,0.51172 c -0.0111,0.46072 0.35945,0.84015 0.82031,0.83984 h 142.41016 c 0.0787,-6.6e-4 0.14352,-0.0621 0.14844,-0.14062 l 2.20117,-69.81055 c 0.0223,-0.69488 -0.53524,-1.27016 -1.23048,-1.26953 h -0.39062 c -0.79666,-8.2e-4 -1.4698,0.59529 -1.57032,1.39062 -0.98666,7.68667 -2.05565,14.55604 -3.20898,20.60938 -3.61,18.93 -17.03946,34.68078 -35.43946,40.05078 -5.20666,1.52 -13.18302,2.32154 -23.92968,2.4082 -4.22667,0.0333 -12.26466,0.0302 -24.11133,-0.01 -0.66053,-2.5e-4 -1.19444,-0.54293 -1.18945,-1.20899 0.16666,-20.44 0.13992,-37.81752 -0.0801,-52.13086 -0.3,-18.44 0.62961,-39.84875 -0.40039,-59.71875 -0.0284,-0.4919 0.35701,-0.90919 0.84961,-0.91992 8.93333,-0.16667 17.86744,-0.22016 26.80078,-0.16016 13.13,0.08 25.13086,0.84844 31.38086,13.89844 4.24,8.84 5.98,16.78047 6.5,24.73047 0.0317,0.47282 0.42456,0.84009 0.89844,0.83985 h 1.21093 c 0.52406,-4.3e-4 0.94879,-0.42516 0.94922,-0.94922 V 76.553996 c 9e-5,-0.502611 -0.41179,-0.910116 -0.91992,-0.91016 h -1.58008 c -0.62591,-6.14e-4 -1.13929,0.491164 -1.16015,1.11133 -0.27001,6.41 -0.40008,14.44937 -2.58008,21.10937 -3.01,9.149994 -10.58008,15.230464 -20.33008,17.230464 -1.75333,0.36 -5.71844,0.63984 -11.89844,0.83984 -9.75333,0.30667 -19.44984,0.4373 -29.08984,0.39063 -0.33259,8.7e-4 -0.60243,-0.26897 -0.60156,-0.60156 V 10.274936 c 1.3e-4,-0.2821431 0.23381,-0.510573 0.52148,-0.5097699 15.83333,-0.04 27.37247,-8.6e-4 34.61914,0.11914 6.52667,0.11334 11.1224,0.5299999 13.78906,1.2499999 13.36,3.60667 22.87435,11.77334 28.54102,24.5 4.47,10.03 5.52961,18.75118 6.59961,29.20117 0.0802,0.785143 0.708,1.399752 1.49023,1.45899 h 0.0605 c 0.72596,0.05673 1.35295,-0.502758 1.37891,-1.23047 0.13999,-3.28667 0.13999,-6.46883 0,-9.54883 -0.75334,-17.05333 -0.82852,-34.67271 -0.22852,-52.8593699 0.0187,-0.5001044 -0.35376,-0.9289622 -0.85156,-0.98047 -2.19334,-0.24 -4.1286,-0.36443 -5.8086,-0.37109 z m -661.55078,0.46093 c -0.19993,3.824e-4 -0.3634,0.1595271 -0.36914,0.35938 l -0.96094,67.8300799 c -0.005,0.797138 0.45704,1.521738 1.17969,1.84961 l 0.80078,0.36132 c 0.52333,0.170339 1.06758,-0.188022 1.10938,-0.73047 1.01,-11.56 2.67015,-23.62015 6.66015,-33.91015 5.8,-14.93 17.38016,-24.09008 33.41016,-26.83008 6.71333,-1.1466699 13.01372,-1.7001599 18.90039,-1.6601599 0.28306,2.011e-4 0.51396,0.2267675 0.51953,0.50977 0.90667,68.5799999 1.03729,139.6303839 0.39063,213.1503839 -0.02,2.46667 -0.49636,6.76706 -1.42969,12.90039 -0.72,4.70667 -4.30144,7.31492 -10.63477,7.29492 -0.68447,0.0931 -0.82481,0.85069 -0.82421,1.33203 l 0.008,0.54297 c 5.1e-4,0.43644 0.35034,0.78977 0.78125,0.78907 H 278.639 c 0.38065,-3e-4 0.68916,-0.30881 0.68946,-0.68946 v -0.42969 c 0.002,-0.45701 -0.34562,-0.83971 -0.80078,-0.88085 -5.62001,-0.5 -10.11954,-1.93922 -11.26954,-8.19922 -0.42,-2.28 -0.64325,-5.83349 -0.66992,-10.66016 -0.45,-77.34 -0.23992,-156.699054 -0.41992,-215.2890539 -10e-4,-0.2289928 0.17691,-0.4166498 0.40039,-0.42188 4.82,-0.12 9.59984,0.0137 14.33984,0.40039 12.7,1.0399999 26.92954,8.5510999 33.26954,19.3710999 3.43333,5.86 5.99612,13.09875 7.68945,21.71875 1.28667,6.50666 2.1138,12.5838 2.48047,18.23047 0.0533,0.82666 0.43705,1.4007 1.15039,1.7207 0.72208,0.325916 1.54588,-0.106353 1.61914,-0.84961 0.25333,-2.60667 0.34172,-5.31753 0.26172,-8.13086 -0.52,-18.56667 -0.74831,-38.22404 -0.68164,-58.9706999 -5.6e-4,-0.3913337 -0.31766,-0.7084337 -0.70899,-0.70899 z m 522.57031,0 c -19.36,0.0533 -40.57086,0.16031 -63.63085,0.32031 -0.35777,8.576e-4 -0.64758,0.2906723 -0.64844,0.64844 v 0.83008 c 0.002,0.3278777 0.24365,0.604868 0.56836,0.65039 1.69,0.21 4.62,0.10055 6,0.81055 4.54,2.35 5.01031,8.5699199 5.07031,13.4199199 0.16,13.08667 0.22784,35.53008 0.20117,67.33008 -0.03,48.229994 0.34906,70.959914 0.53906,124.669914 0.0333,9.30667 -0.3,18.1462 -1,26.51953 -0.44,5.37 -4.59992,5.88031 -8.91992,6.82031 -1.06031,0.24412 -1.05271,1.75679 0.01,1.99024 2.59,0.53 5.56961,-0.0198 8.09961,-0.01 16.50666,0.0533 34.51481,-0.003 54.02148,-0.16992 1.1492,-0.0411 1.3164,-1.67867 0.19922,-1.95117 -5.13,-1.13 -8.4493,-2.01945 -9.2793,-7.93945 -0.44,-3.11334 -0.63651,-6.11644 -0.58984,-9.00977 0.43,-25.01 0.008,-46.53 -0.0117,-73 -0.06,-71.793324 -0.12588,-115.959994 -0.19922,-132.499994 -0.02,-4.59 0.45,-11.06039 3.25,-14.6503899 0.28551,-0.3563673 0.67866,-0.6088654 1.11914,-0.71875 l 5.85156,-1.43164 c 1.29746,-0.3246878 1.42065,-2.1203006 0.17969,-2.61914 -0.0133,-0.007 -0.29008,-0.01 -0.83008,-0.01 z m -354.68945,0.01 c -0.26295,-0.00167 -0.45813,0.2468187 -0.40039,0.50976 0.0667,0.29334 0.29922,0.57008 0.69922,0.83008 0.7,0.45334 2.17016,1.1262 4.41016,2.01953 0.38155,0.1515265 0.72067,0.3883098 0.99023,0.69141 4.08,4.4799999 3.68039,11.6198399 3.65039,16.5898399 -0.23,42.35 0.20899,74.87914 -0.041,113.369134 -0.10001,15.12667 -0.17519,45.93016 -0.22852,92.41016 -0.01,6.97 -2.12164,14.81969 -10.43164,15.17969 -0.32491,0.016 -0.58014,0.28407 -0.58008,0.60937 v 0.56055 c -2.9e-4,0.41011 0.3209,0.74848 0.73047,0.76953 13.22667,0.55333 21.94372,0.79094 26.15039,0.71094 31.68,-0.64 60.94055,-0.16039 118.31055,-0.15039 0.10993,-4.1e-4 0.19891,-0.085 0.19922,-0.18946 l 0.99022,-70.02952 c 0.007,-0.55686 -0.44311,-1.01176 -1,-1.01172 h -0.41016 c -0.58861,1.9e-4 -1.08543,0.43764 -1.16015,1.02148 -2.18,16.99 -4.88016,34.6993 -17.16016,47.7793 -4.02,4.28 -9.46961,7.89318 -16.34961,10.83984 -6.54,2.79334 -14.0431,4.23675 -22.50976,4.33008 -15.90667,0.16667 -27.42722,0.30349 -34.56055,0.41016 -0.44133,0.006 -0.80821,-0.33847 -0.83008,-0.7793 -0.33333,-6.04667 -0.48255,-10.48078 -0.44922,-13.30078 0.31334,-27.86 0.39357,-61.21388 0.24024,-100.06055 4e-4,-0.15401 0.12955,-0.27879 0.28906,-0.27929 14.56667,0.10666 24.28992,0.0974 29.16992,-0.0293 9.08,-0.24 15.51102,0.29604 19.29102,1.60937 16.18,5.62 18.87882,22.09961 20.04883,38.09961 0.042,0.52613 0.48196,0.93124 1.00976,0.92969 h 1.66992 c 0.45312,1.8e-4 0.82049,-0.36719 0.82032,-0.82031 V 75.054236 c 0,-0.414309 -0.33146,-0.750134 -0.74024,-0.75 h -2.53906 c -0.42516,-8.61e-4 -0.77475,0.334912 -0.79102,0.75976 -0.6,12.28 -0.7582,20.3318 -7.4082,29.591794 -4.86,6.76 -11.93714,10.37627 -21.23047,10.84961 -10.40667,0.53333 -23.56404,0.72984 -39.4707,0.58984 -0.17697,1.7e-4 -0.32048,-0.14334 -0.32031,-0.32031 -0.007,-27.406664 0.0767,-60.183404 0.25,-98.330074 0.0133,-2.88 0.1769,-5.1331 0.49023,-6.75977 0.0595,-0.304727 0.32062,-0.528632 0.63086,-0.54101 16.47333,-0.5266699 31.1431,-0.4320799 44.00976,0.28125 17.17,0.96 30.68883,11.51023 36.29883,27.74023 2.82667,8.18 4.76388,16.6893 5.81055,25.5293 0.12941,1.063853 0.83893,1.966195 1.83984,2.33984 l 0.0312,0.0195 c 0.79114,0.297564 1.62708,-0.316219 1.58008,-1.16016 -1.08,-20.58667 -1.35055,-41.47969 -0.81055,-62.6796899 0.005,-0.2410386 -0.18858,-0.4393288 -0.42968,-0.43945 z m 562.17383,0.0801 c -8.19667,-0.0767 -16.60461,-0.0736 -25.22461,0.01 -10.40667,0.1 -20.83263,0.16279 -31.2793,0.18946 -0.32038,-4.42e-5 -0.58012,0.2596863 -0.58008,0.58007 v 0.34961 c -0.002,0.5851645 0.4506,1.0736249 1.03907,1.1211 2.03333,0.14666 3.81317,0.31643 5.33984,0.50976 4.14,0.52 5.91961,5.8795299 6.34961,9.2695299 0.16667,1.3 0.2376,3.90388 0.21094,7.81055 -0.1,13.69333 -0.13294,33.52977 -0.0996,59.50977 0.08,54.389994 -0.0708,89.999674 0.19922,144.179674 0.0267,5.35334 -0.3993,9.10024 -1.2793,11.24024 -1.67333,4.07333 -4.56945,6.55278 -8.68945,7.43945 -0.54056,0.11309 -0.69371,1.03278 -0.25,1.3616 0.32,0.24 0.78861,0.34232 1.36194,0.34899 21.98,0.18667 41.19045,0.0444 57.67712,-0.029 1.34667,-0.007 2.9496,-0.007 5.43616,-0.004 0.43483,-0.0165 0.75293,-0.55597 0.75329,-0.99648 v -0.85156 c 8.2e-4,-0.45183 -0.34815,-0.82724 -0.79883,-0.85938 -4.93999,-0.36 -9.54968,-0.0801 -10.67968,-5.83007 -1.55,-7.92 -1.52172,-16.61907 -1.51172,-25.78907 0.0333,-31.84 -0.009,-56.99117 -0.12891,-75.45117 -3.3e-4,-0.42593 0.35369,-0.76664 0.7793,-0.75 l 11.82031,0.49024 c 0.63605,0.0259 1.25027,0.26101 1.75,0.66992 3.49,2.83 9.4707,4.84976 12.7207,8.50976 2.56667,2.88667 4.71899,6.2169 6.45899,9.99024 2.5,5.44 4.85078,11.37721 7.05078,17.81054 3.27,9.62 7.26945,19.64969 10.68945,27.42969 8.23,18.7 19.62063,34.08 38.89063,42.25 6.26,2.66 13.25375,3.035 20.34371,3.375 8.131,0.003 15.4279,0.007 23.8946,-0.006 v -1.72265 c -4.0533,-0.81334 -6.633,-1.08276 -7.793,-1.4961 -5.6333,-2 -10.6395,-5.67286 -15.0195,-11.01953 -12.72003,-15.53049 -18.9398,-37.11127 -27.2598,-53.30127 -6.09,-11.86 -14.53039,-22.93977 -25.65039,-29.50977 -6.13333,-3.62666 -13.27635,-6.89721 -21.42969,-9.81054 -4.64,-1.67 -9.65047,-2.33024 -14.73047,-3.49024 -0.3677,-0.0862 -0.32582,-0.62238 0.0508,-0.65039 5.57,-0.35 12.30961,0.0311 18.09961,-0.8789 5.56,-0.88 10.68558,-1.81722 15.37891,-2.81055 8.96,-1.90667 17.42086,-5.36247 25.38086,-10.36914 3.32,-2.08 7.24286,-5.49977 11.76953,-10.25977 8.97,-9.43 13.92961,-23.740534 14.84961,-36.310534 1.28,-17.2 -1.97867,-32.76063 -13.13867,-45.64063 -11.24,-12.96 -26.43109,-19.6703899 -42.87109,-22.9003899 -9.84001,-1.93333 -18.48303,-3.01161 -25.92969,-3.23828 -7.77334,-0.23667 -15.75841,-0.39404 -23.95508,-0.4707 z m -416.89453,0.25976 c -0.39157,-0.00412 -0.58671,0.4732844 -0.31055,0.75977 1.49,1.5 4.29133,1.35 6.36133,1.75 0.53091,0.1041534 1.00719,0.3832968 1.34961,0.79101 2.96,3.5 3.27922,5.3289899 3.69922,9.7089899 0.2,2.06 0.31317,3.63713 0.33984,4.73047 0.18667,6.59333 0.29985,27.29294 0.33985,62.09961 0.0667,54.246654 -0.0527,102.576894 -0.35938,144.990224 -0.02,3.07333 -0.36573,6.56094 -1.03906,10.46094 -0.82,4.72 -4.69141,5.62992 -8.69141,6.41992 -1.17296,0.24704 -0.9975,1.97262 0.20117,1.97852 h 139.87891 c 0.18563,9e-5 0.33905,-0.14475 0.34961,-0.33008 l 2.87109,-68.75977 c 0.0222,-0.43472 -0.32447,-0.79926 -0.75976,-0.79883 h -1.46094 c -0.49443,-2.2e-4 -0.89858,0.39438 -0.91016,0.88868 -0.11333,8.7 -1.95596,17.54458 -5.52929,26.53124 -4.12,10.36667 -10.32776,18.48295 -18.6211,24.34961 -6.22,4.4 -12.16146,7.37636 -17.82812,8.92969 -13.93,3.82 -30.7118,3.3993 -44.3418,3.0293 -0.36689,-0.0118 -0.65822,-0.31261 -0.6582,-0.67969 0.10666,-57.37333 0.17875,-131.21286 0.21875,-221.519524 0,-2.48667 0.2469,-4.83745 0.74023,-7.05078 1.33,-5.9599999 6.29961,-5.6090599 11.09961,-6.2890599 0.62299,-0.084768 1.1434,-0.5202201 1.33985,-1.1211 l 0.0898,-0.26953 c 0.0865,-0.3006135 -0.13303,-0.6001641 -0.43945,-0.59961 z m 428.66211,6.19336 c 5.02625,0.0475 10.27804,0.28086 14.24804,1.00586 9.26667,1.6999999 17.32016,6.0271399 24.16016,12.9804699 4.96667,5.04667 8.72287,11.67729 11.26953,19.89062 1.74667,5.64 2.83,13.24388 3.25,22.81055 0.64,14.5 -2.07054,29.71867 -9.56054,41.888664 -8.76001,14.24667 -22.45652,21.70753 -41.08985,22.38086 -6.18667,0.22667 -11.41612,0.28016 -15.68945,0.16016 -0.38444,-0.0111 -0.69013,-0.32634 -0.68946,-0.71094 V 9.6557961 c -3.5e-4,-0.6713721 0.53772,-1.2190022 1.20899,-1.23047 3.065,-0.025 7.86633,-0.16469 12.89258,-0.11719 z M 100.76381,58.497586 c 0.12984,3.2e-5 0.24493,0.08359 0.28516,0.20704 l 31.48828,110.080064 c 0.0474,0.15398 -0.0674,0.30996 -0.22852,0.31055 H 64.027482 c -0.455906,0.004 -0.771335,-0.45744 -0.609375,-0.89062 2.653333,-6.96667 4.840547,-12.95232 6.560547,-17.95899 3.12,-9.11333 9.013021,-26.14008 17.679687,-51.080078 4.1,-11.809996 7.559219,-23.380306 11.449219,-35.070306 0.6,-1.79 0.86109,-3.64062 1.3711,-5.39062 0.0402,-0.123448 0.15531,-0.207004 0.28515,-0.20704 z" />
  </g>
</svg>
